<svg version="1.1" xmlns="http://www.w3.org/2000/svg" xmlns:xlink="http://www.w3.org/1999/xlink" width="408.000000pt" height="612.000000pt" viewBox="0,0,170.65625,256"><g fill="#f5f5f5" fill-rule="nonzero" stroke="none" stroke-width="1" stroke-linecap="butt" stroke-linejoin="miter" stroke-miterlimit="10" stroke-dasharray="" stroke-dashoffset="0" font-family="none" font-weight="none" font-size="none" text-anchor="none" style="mix-blend-mode: normal"><g transform="translate(-0.87543,2.74987) scale(0.4183,0.4183)"><g transform="translate(0,612) scale(0.1,-0.1)"><path d="M2098,4595c-56,-58 -106,-105 -112,-105c-6,0 -24,14 -40,30c-16,17 -36,30 -45,30c-9,1 -33,3 -53,6c-20,3 -46,0 -57,-6c-39,-20 -25,-51 62,-137c93,-92 111,-103 163,-103c34,0 47,10 166,128c71,70 134,135 139,145c8,13 0,27 -37,67c-26,28 -55,50 -66,50c-11,0 -61,-44 -120,-105z"></path><path d="M971,4513c-23,-28 -20,-59 7,-80c10,-9 53,-13 128,-13c142,0 153,-7 188,-123c26,-87 116,-410 172,-616l33,-123l-27,-35c-37,-49 -43,-142 -13,-201c22,-44 76,-86 123,-97l28,-7l-21,-30c-53,-74 -44,-163 21,-222c46,-41 74,-50 137,-43c81,9 134,65 141,151c4,47 0,62 -22,101l-27,45h201h200l-25,-38c-37,-56 -42,-117 -13,-171c35,-68 66,-86 148,-86c74,0 103,14 144,69c32,43 29,130 -7,184l-27,42h38c49,0 82,23 82,59c0,62 12,61 -513,61h-476l-20,26c-28,35 -26,69 4,99l24,25h452c433,0 454,1 494,20c47,23 110,81 131,121c7,15 22,60 33,100c140,526 136,504 91,526c-19,10 -178,13 -702,13c-636,0 -677,1 -682,18c-44,155 -47,160 -85,195c-52,47 -93,57 -228,57c-109,0 -112,-1 -132,-27zM2696,4133c-3,-10 -24,-90 -46,-178c-62,-240 -69,-263 -96,-294c-13,-16 -36,-34 -51,-40c-20,-8 -154,-11 -462,-9l-434,3l-73,255c-41,140 -74,261 -74,268c0,9 131,12 621,12c586,0 620,-1 615,-17zM1773,3119c45,-61 -38,-133 -95,-82c-26,23 -24,78 5,98c30,22 66,15 90,-16zM2400,3124c20,-23 16,-75 -5,-90c-61,-45 -130,20 -95,87c13,24 81,27 100,3z"></path><path d="M2775,2648c-79,-28 -135,-110 -135,-198c0,-57 38,-140 76,-167c113,-78 256,-45 310,71c38,81 31,150 -22,228c-44,63 -150,94 -229,66zM2927,2548c29,-27 43,-77 34,-120c-17,-75 -53,-108 -116,-108c-71,0 -115,51 -115,133c0,113 117,170 197,95z"></path><path d="M434,2637c-2,-7 -3,-98 -2,-202l3,-190h35h35l5,122c3,67 8,124 11,127c3,3 25,-33 49,-79c38,-73 48,-85 70,-85c21,0 31,12 70,86l45,87l3,-127c3,-124 3,-126 27,-132c54,-14 55,-11 55,206v200h-43h-42l-55,-105c-30,-58 -58,-105 -61,-105c-3,0 -32,47 -63,105l-58,105h-39c-23,0 -42,-5 -45,-13z"></path><path d="M912,2448l3,-203h35h35l3,203l2,202h-40h-40z"></path><path d="M1067,2643c-13,-12 -8,-378 5,-391c15,-15 55,-16 64,-1c3,6 9,61 11,123c3,61 6,112 7,113c2,2 38,-50 82,-115c75,-111 81,-117 117,-120l37,-3v200v201h-40h-40v-121c0,-98 -2,-119 -13,-111c-7,6 -46,61 -87,122c-68,101 -77,110 -106,110c-17,0 -34,-3 -37,-7z"></path><path d="M1467,2643c-4,-3 -7,-93 -7,-199v-194l25,-6c48,-12 55,-1 55,86v80h80h79l3,-77l3,-78h40h40l3,198l2,198l-42,-3l-43,-3l-3,-77l-3,-78h-80h-81l7,59c9,82 2,101 -39,101c-18,0 -36,-3 -39,-7z"></path><path d="M1965,2638c-2,-7 -34,-93 -70,-191c-36,-98 -65,-183 -65,-188c0,-6 18,-9 42,-7c37,3 42,6 53,38l12,35l77,3l77,3l16,-41c15,-37 19,-40 55,-40c30,0 38,4 38,18c0,9 -31,98 -68,197l-68,180l-47,3c-32,2 -49,-1 -52,-10zM2046,2470c12,-33 19,-62 16,-65c-3,-3 -25,-5 -49,-5c-30,0 -43,4 -43,14c0,22 42,127 49,121c3,-4 15,-33 27,-65z"></path><path d="M2380,2450v-201l123,3l122,3l3,29c5,39 -10,46 -96,46h-73l3,158l3,157l-42,3l-43,3z"></path><path d="M3210,2508c0,-176 -8,-194 -76,-184c-39,5 -46,3 -60,-20c-15,-23 -16,-27 -2,-41c25,-24 102,-29 148,-8c63,28 67,40 71,225l4,165l-42,3l-43,3z"></path><path d="M3456,2642c-11,-19 -136,-365 -136,-378c0,-10 12,-14 38,-14c36,0 40,3 55,40l16,41l77,-3l77,-3l12,-35c11,-32 16,-35 53,-38c23,-2 42,1 42,6c0,5 -32,96 -71,201l-71,191h-44c-23,0 -45,-4 -48,-8zM3529,2478c12,-34 21,-66 21,-70c0,-4 -20,-8 -45,-8c-51,0 -56,11 -31,71c7,19 16,42 19,52c4,9 8,17 11,17c2,0 14,-28 25,-62z"></path><path d="M465,2073c6,-26 119,-344 162,-458l19,-50h69h70l92,255c50,140 92,261 92,268c1,10 -15,12 -61,10l-62,-3l-64,-198c-35,-109 -66,-196 -70,-192c-3,3 -35,92 -72,198l-65,192l-59,3l-58,3z"></path><path d="M1035,2088c-3,-7 -4,-128 -3,-268l3,-255h55h55v265v265l-53,3c-36,2 -54,-1 -57,-10z"></path><path d="M1256,1848c-4,-139 -4,-261 0,-271c5,-15 16,-17 58,-15l51,3l3,88l3,87h43h44l48,-87l49,-88l54,-3c30,-2 57,0 62,5c4,4 -17,49 -46,98l-53,90l34,28c47,39 66,79 66,141c1,81 -40,141 -111,165c-19,6 -93,11 -166,11h-132zM1507,2000c51,-18 69,-88 34,-131c-16,-20 -30,-24 -95,-27l-76,-4v79c0,44 3,83 7,86c10,11 97,8 130,-3z"></path><path d="M1722,2053l3,-48l73,-3l72,-3v-219v-220h54c40,0 55,4 60,16c3,9 6,108 6,220v204h63c79,0 89,7 85,56l-3,39l-208,3l-208,2z"></path><path d="M2214,2086c-3,-8 -4,-100 -2,-204l3,-189l30,-48c37,-59 85,-86 168,-92c81,-7 139,10 188,54c60,54 70,103 67,314l-3,174h-55h-55l-5,-192c-5,-190 -5,-193 -31,-218c-47,-47 -143,-42 -172,9c-8,13 -14,89 -17,211l-5,190l-53,3c-39,2 -54,-1 -58,-12z"></path><path d="M2890,2078c-47,-105 -187,-505 -179,-512c9,-10 84,-10 99,-1c5,3 16,28 25,55l17,50h107h108l18,-54c13,-39 25,-56 40,-60c23,-6 76,1 87,12c6,6 -117,351 -172,482l-18,45l-61,3c-55,3 -62,1 -71,-20zM2994,1877c16,-45 31,-88 34,-94c3,-10 -14,-13 -68,-13c-53,0 -71,3 -68,13c3,6 18,49 34,95c16,45 31,82 34,82c3,0 18,-37 34,-83z"></path><path d="M3287,2094c-4,-4 -7,-126 -7,-271v-263h171h170l-3,48l-3,47l-113,3l-113,3l3,217l3,217l-50,3c-28,2 -54,0 -58,-4z"></path></g></g></g></svg>